{
  "accessors": [
    {
      "bufferView": 2,
      "componentType": 5126,
      "count": 32,
      "max": [
        17.9477596282959,
        -23.795433044433594,
        11.144145011901855
      ],
      "min": [
        -6.182866096496582,
        -118.92009735107422,
        0.8852429986000061
      ],
      "type": "VEC3"
    },
    {
      "bufferView": 2,
      "byteOffset": 384,
      "componentType": 5126,
      "count": 32,
      "max": [
        1.0,
        -0.0,
        0.0
      ],
      "min": [
        1.0,
        -0.0,
        0.0
      ],
      "type": "VEC3"
    },
    {
      "bufferView": 1,
      "componentType": 5126,
      "count": 32,
      "max": [
        0.4107140004634857,
        0.5
      ],
      "min": [
        0.4107140004634857,
        0.25
      ],
      "type": "VEC2"
    },
    {
      "bufferView": 0,
      "componentType": 5125,
      "count": 48,
      "type": "SCALAR"
    },
    {
      "bufferView": 2,
      "byteOffset": 768,
      "componentType": 5126,
      "count": 1920,
      "max": [
        25.464176177978516,
        -33.045310974121094,
        17.314207077026367
      ],
      "min": [
        -21.55275535583496,
        -109.58875274658203,
        1.149448037147522
      ],
      "type": "VEC3"
    },
    {
      "bufferView": 2,
      "byteOffset": 23808,
      "componentType": 5126,
      "count": 1920,
      "max": [
        0.9935646653175354,
        0.999671995639801,
        0.9986028671264648
      ],
      "min": [
        -1.0,
        -0.9996708631515503,
        -0.9950373768806458
      ],
      "type": "VEC3"
    },
    {
      "bufferView": 1,
      "byteOffset": 256,
      "componentType": 5126,
      "count": 1920,
      "max": [
        0.875,
        1.0
      ],
      "min": [
        0.125,
        0.0
      ],
      "type": "VEC2"
    },
    {
      "bufferView": 0,
      "byteOffset": 192,
      "componentType": 5125,
      "count": 2880,
      "type": "SCALAR"
    },
    {
      "bufferView": 2,
      "byteOffset": 46848,
      "componentType": 5126,
      "count": 15744,
      "max": [
        25.464176177978516,
        -24.234947204589844,
        17.314207077026367
      ],
      "min": [
        -21.55275535583496,
        -118.425537109375,
        1.149448037147522
      ],
      "type": "VEC3"
    },
    {
      "bufferView": 2,
      "byteOffset": 235776,
      "componentType": 5126,
      "count": 15744,
      "max": [
        0.993564784526825,
        0.999671995639801,
        0.9986028671264648
      ],
      "min": [
        -1.0,
        -0.9996708631515503,
        -0.9950373768806458
      ],
      "type": "VEC3"
    },
    {
      "bufferView": 1,
      "byteOffset": 15616,
      "componentType": 5126,
      "count": 15744,
      "max": [
        0.875,
        1.0
      ],
      "min": [
        0.125,
        0.0
      ],
      "type": "VEC2"
    },
    {
      "bufferView": 0,
      "byteOffset": 11712,
      "componentType": 5125,
      "count": 23616,
      "type": "SCALAR"
    },
    {
      "bufferView": 2,
      "byteOffset": 424704,
      "componentType": 5126,
      "count": 72,
      "max": [
        14.08895492553711,
        -55.63136291503906,
        40.38145446777344
      ],
      "min": [
        -24.42966079711914,
        -87.19662475585938,
        16.131732940673828
      ],
      "type": "VEC3"
    },
    {
      "bufferView": 2,
      "byteOffset": 425568,
      "componentType": 5126,
      "count": 72,
      "max": [
        0.21471692621707916,
        1.0,
        0.9989265203475952
      ],
      "min": [
        -1.0,
        -0.02068300172686577,
        -1.0
      ],
      "type": "VEC3"
    },
    {
      "bufferView": 1,
      "byteOffset": 141568,
      "componentType": 5126,
      "count": 72,
      "max": [
        0.7916669845581055,
        0.9166669845581055
      ],
      "min": [
        0.20833300054073334,
        0.0
      ],
      "type": "VEC2"
    },
    {
      "bufferView": 0,
      "byteOffset": 106176,
      "componentType": 5125,
      "count": 120,
      "type": "SCALAR"
    },
    {
      "bufferView": 2,
      "byteOffset": 426432,
      "componentType": 5126,
      "count": 6580,
      "max": [
        26.784618377685547,
        -23.7659912109375,
        16.288829803466797
      ],
      "min": [
        -24.438770294189453,
        -118.95018768310547,
        -2.2216649055480957
      ],
      "type": "VEC3"
    },
    {
      "bufferView": 2,
      "byteOffset": 505392,
      "componentType": 5126,
      "count": 6580,
      "max": [
        1.0,
        1.0,
        1.0
      ],
      "min": [
        -1.0,
        -1.0,
        -1.0
      ],
      "type": "VEC3"
    },
    {
      "bufferView": 1,
      "byteOffset": 142144,
      "componentType": 5126,
      "count": 6580,
      "max": [
        1.0,
        1.0
      ],
      "min": [
        0.0,
        0.0
      ],
      "type": "VEC2"
    },
    {
      "bufferView": 0,
      "byteOffset": 106656,
      "componentType": 5125,
      "count": 13008,
      "type": "SCALAR"
    },
    {
      "bufferView": 2,
      "byteOffset": 584352,
      "componentType": 5126,
      "count": 3744,
      "max": [
        26.739994049072266,
        -33.62853240966797,
        17.74485206604004
      ],
      "min": [
        -21.768749237060547,
        -118.77375793457031,
        0.696241021156311
      ],
      "type": "VEC3"
    },
    {
      "bufferView": 2,
      "byteOffset": 629280,
      "componentType": 5126,
      "count": 3744,
      "max": [
        0.9516305327415466,
        1.0,
        1.0
      ],
      "min": [
        -0.9515811204910278,
        -1.0,
        -1.0
      ],
      "type": "VEC3"
    },
    {
      "bufferView": 1,
      "byteOffset": 194784,
      "componentType": 5126,
      "count": 3744,
      "max": [
        0.65625,
        1.0
      ],
      "min": [
        0.34375,
        0.0
      ],
      "type": "VEC2"
    },
    {
      "bufferView": 0,
      "byteOffset": 158688,
      "componentType": 5125,
      "count": 9984,
      "type": "SCALAR"
    },
    {
      "bufferView": 2,
      "byteOffset": 674208,
      "componentType": 5126,
      "count": 7450,
      "max": [
        26.739994049072266,
        -24.206741333007813,
        17.723302841186523
      ],
      "min": [
        -21.768749237060547,
        -118.70454406738281,
        0.696241021156311
      ],
      "type": "VEC3"
    },
    {
      "bufferView": 2,
      "byteOffset": 763608,
      "componentType": 5126,
      "count": 7450,
      "max": [
        0.9515988826751709,
        1.0,
        1.0
      ],
      "min": [
        -0.9515756368637085,
        -1.0,
        -1.0
      ],
      "type": "VEC3"
    },
    {
      "bufferView": 1,
      "byteOffset": 224736,
      "componentType": 5126,
      "count": 7450,
      "max": [
        0.65625,
        1.0
      ],
      "min": [
        0.34375,
        0.0
      ],
      "type": "VEC2"
    },
    {
      "bufferView": 0,
      "byteOffset": 198624,
      "componentType": 5125,
      "count": 14034,
      "type": "SCALAR"
    },
    {
      "bufferView": 2,
      "byteOffset": 853008,
      "componentType": 5126,
      "count": 8330,
      "max": [
        24.921154022216797,
        -33.62853240966797,
        17.723302841186523
      ],
      "min": [
        -21.768749237060547,
        -109.02803039550781,
        0.696241021156311
      ],
      "type": "VEC3"
    },
    {
      "bufferView": 2,
      "byteOffset": 952968,
      "componentType": 5126,
      "count": 8330,
      "max": [
        0.9239020943641663,
        0.9239232540130615,
        0.8791478872299194
      ],
      "min": [
        -0.9239020943641663,
        -0.9239277839660645,
        -0.9307020902633667
      ],
      "type": "VEC3"
    },
    {
      "bufferView": 1,
      "byteOffset": 284336,
      "componentType": 5126,
      "count": 8330,
      "max": [
        0.65625,
        1.0
      ],
      "min": [
        0.34375,
        0.3125
      ],
      "type": "VEC2"
    },
    {
      "bufferView": 0,
      "byteOffset": 254760,
      "componentType": 5125,
      "count": 14994,
      "type": "SCALAR"
    },
    {
      "bufferView": 2,
      "byteOffset": 1052928,
      "componentType": 5126,
      "count": 3244,
      "max": [
        17.52107048034668,
        -33.70459747314453,
        17.723302841186523
      ],
      "min": [
        -21.768749237060547,
        -108.98131561279297,
        3.086716890335083
      ],
      "type": "VEC3"
    },
    {
      "bufferView": 2,
      "byteOffset": 1091856,
      "componentType": 5126,
      "count": 3244,
      "max": [
        0.9239020943641663,
        0.9238962531089783,
        0.9238752126693726
      ],
      "min": [
        -0.9239020943641663,
        -0.9239195585250854,
        -0.9306983351707458
      ],
      "type": "VEC3"
    },
    {
      "bufferView": 1,
      "byteOffset": 350976,
      "componentType": 5126,
      "count": 3244,
      "max": [
        0.65625,
        1.0
      ],
      "min": [
        0.34375,
        0.0
      ],
      "type": "VEC2"
    },
    {
      "bufferView": 0,
      "byteOffset": 314736,
      "componentType": 5125,
      "count": 5916,
      "type": "SCALAR"
    },
    {
      "bufferView": 2,
      "byteOffset": 1130784,
      "componentType": 5126,
      "count": 7104,
      "max": [
        26.739994049072266,
        -24.206741333007813,
        17.74485206604004
      ],
      "min": [
        -21.711627960205078,
        -118.77375793457031,
        0.7224119901657104
      ],
      "type": "VEC3"
    },
    {
      "bufferView": 2,
      "byteOffset": 1216032,
      "componentType": 5126,
      "count": 7104,
      "max": [
        0.9515542387962341,
        0.9239678978919983,
        0.9238797426223755
      ],
      "min": [
        -0.9239028692245483,
        -0.9238966107368469,
        -0.9238797426223755
      ],
      "type": "VEC3"
    },
    {
      "bufferView": 1,
      "byteOffset": 376928,
      "componentType": 5126,
      "count": 7104,
      "max": [
        0.65625,
        1.0
      ],
      "min": [
        0.34375,
        0.3125
      ],
      "type": "VEC2"
    },
    {
      "bufferView": 0,
      "byteOffset": 338400,
      "componentType": 5125,
      "count": 10704,
      "type": "SCALAR"
    },
    {
      "bufferView": 2,
      "byteOffset": 1301280,
      "componentType": 5126,
      "count": 240,
      "max": [
        32.467227935791016,
        -55.63136291503906,
        40.38145446777344
      ],
      "min": [
        -23.42966079711914,
        -87.19664001464844,
        16.131732940673828
      ],
      "type": "VEC3"
    },
    {
      "bufferView": 2,
      "byteOffset": 1304160,
      "componentType": 5126,
      "count": 240,
      "max": [
        1.0,
        1.0,
        0.9989266395568848
      ],
      "min": [
        -0.5371321439743042,
        -1.0,
        -1.0
      ],
      "type": "VEC3"
    },
    {
      "bufferView": 1,
      "byteOffset": 433760,
      "componentType": 5126,
      "count": 240,
      "max": [
        0.7916669845581055,
        0.41666701436042786
      ],
      "min": [
        0.375,
        0.0
      ],
      "type": "VEC2"
    },
    {
      "bufferView": 0,
      "byteOffset": 381216,
      "componentType": 5125,
      "count": 456,
      "type": "SCALAR"
    },
    {
      "bufferView": 2,
      "byteOffset": 1307040,
      "componentType": 5126,
      "count": 204,
      "max": [
        32.467227935791016,
        -24.066102981567383,
        39.258644104003906
      ],
      "min": [
        -24.42966079711914,
        -118.76188659667969,
        15.643177032470703
      ],
      "type": "VEC3"
    },
    {
      "bufferView": 2,
      "byteOffset": 1309488,
      "componentType": 5126,
      "count": 204,
      "max": [
        1.0,
        1.0,
        0.9992272257804871
      ],
      "min": [
        -1.0,
        -1.0,
        -1.0
      ],
      "type": "VEC3"
    },
    {
      "bufferView": 1,
      "byteOffset": 435680,
      "componentType": 5126,
      "count": 204,
      "max": [
        0.875,
        1.0
      ],
      "min": [
        0.125,
        0.0
      ],
      "type": "VEC2"
    },
    {
      "bufferView": 0,
      "byteOffset": 383040,
      "componentType": 5125,
      "count": 420,
      "type": "SCALAR"
    }
  ],
  "asset": {
    "extras": {
      "author": "liftybones (https://sketchfab.com/liftybones)",
      "license": "CC-BY-4.0 (http://creativecommons.org/licenses/by/4.0/)",
      "source": "https://sketchfab.com/3d-models/tribune-7eea9c16440d43588ee3dab63096491e",
      "title": "Tribune"
    },
    "generator": "Sketchfab-12.68.0",
    "version": "2.0"
  },
  "bufferViews": [
    {
      "buffer": 0,
      "byteLength": 384720,
      "name": "floatBufferViews",
      "target": 34963
    },
    {
      "buffer": 0,
      "byteLength": 437312,
      "byteOffset": 384720,
      "byteStride": 8,
      "name": "floatBufferViews",
      "target": 34962
    },
    {
      "buffer": 0,
      "byteLength": 1311936,
      "byteOffset": 822032,
      "byteStride": 12,
      "name": "floatBufferViews",
      "target": 34962
    }
  ],
  "buffers": [
    {
      "byteLength": 2133968,
      "uri": "scene.bin"
    }
  ],
  "materials": [
    {
      "doubleSided": true,
      "name": "initialShadingGroup",
      "pbrMetallicRoughness": {
        "baseColorFactor": [
          0.5,
          0.5,
          0.5,
          1.0
        ],
        "metallicFactor": 0.0,
        "roughnessFactor": 0.6
      }
    },
    {
      "doubleSided": true,
      "name": "lambert11SG",
      "pbrMetallicRoughness": {
        "baseColorFactor": [
          0.5,
          0.5,
          0.5,
          1.0
        ],
        "metallicFactor": 0.0,
        "roughnessFactor": 0.6
      }
    },
    {
      "doubleSided": true,
      "name": "lambert12SG",
      "pbrMetallicRoughness": {
        "baseColorFactor": [
          0.5,
          0.5,
          0.5,
          1.0
        ],
        "metallicFactor": 0.0,
        "roughnessFactor": 0.6
      }
    },
    {
      "doubleSided": true,
      "name": "lambert15SG",
      "pbrMetallicRoughness": {
        "baseColorFactor": [
          0.5,
          0.5,
          0.5,
          1.0
        ],
        "metallicFactor": 0.0,
        "roughnessFactor": 0.6
      }
    },
    {
      "doubleSided": true,
      "name": "lambert16SG",
      "pbrMetallicRoughness": {
        "baseColorFactor": [
          0.5,
          0.5,
          0.5,
          1.0
        ],
        "metallicFactor": 0.0,
        "roughnessFactor": 0.6
      }
    },
    {
      "doubleSided": true,
      "name": "lambert4SG_lambert8SG",
      "pbrMetallicRoughness": {
        "baseColorFactor": [
          0.5,
          0.5,
          0.5,
          1.0
        ],
        "metallicFactor": 0.0,
        "roughnessFactor": 0.6
      }
    },
    {
      "doubleSided": true,
      "name": "lambert6SG",
      "pbrMetallicRoughness": {
        "baseColorFactor": [
          0.5,
          0.5,
          0.5,
          1.0
        ],
        "metallicFactor": 0.0,
        "roughnessFactor": 0.6
      }
    },
    {
      "doubleSided": true,
      "name": "lambert7SG",
      "pbrMetallicRoughness": {
        "baseColorFactor": [
          0.5,
          0.5,
          0.5,
          1.0
        ],
        "metallicFactor": 0.0,
        "roughnessFactor": 0.6
      }
    }
  ],
  "meshes": [
    {
      "name": "Object_0",
      "primitives": [
        {
          "attributes": {
            "NORMAL": 1,
            "POSITION": 0,
            "TEXCOORD_0": 2
          },
          "indices": 3,
          "material": 2,
          "mode": 4
        }
      ]
    },
    {
      "name": "Object_1",
      "primitives": [
        {
          "attributes": {
            "NORMAL": 5,
            "POSITION": 4,
            "TEXCOORD_0": 6
          },
          "indices": 7,
          "material": 3,
          "mode": 4
        }
      ]
    },
    {
      "name": "Object_2",
      "primitives": [
        {
          "attributes": {
            "NORMAL": 9,
            "POSITION": 8,
            "TEXCOORD_0": 10
          },
          "indices": 11,
          "material": 4,
          "mode": 4
        }
      ]
    },
    {
      "name": "Object_3",
      "primitives": [
        {
          "attributes": {
            "NORMAL": 13,
            "POSITION": 12,
            "TEXCOORD_0": 14
          },
          "indices": 15,
          "material": 0,
          "mode": 4
        }
      ]
    },
    {
      "name": "Object_4",
      "primitives": [
        {
          "attributes": {
            "NORMAL": 17,
            "POSITION": 16,
            "TEXCOORD_0": 18
          },
          "indices": 19,
          "material": 1,
          "mode": 4
        }
      ]
    },
    {
      "name": "Object_5",
      "primitives": [
        {
          "attributes": {
            "NORMAL": 21,
            "POSITION": 20,
            "TEXCOORD_0": 22
          },
          "indices": 23,
          "material": 5,
          "mode": 4
        }
      ]
    },
    {
      "name": "Object_6",
      "primitives": [
        {
          "attributes": {
            "NORMAL": 25,
            "POSITION": 24,
            "TEXCOORD_0": 26
          },
          "indices": 27,
          "material": 5,
          "mode": 4
        }
      ]
    },
    {
      "name": "Object_7",
      "primitives": [
        {
          "attributes": {
            "NORMAL": 29,
            "POSITION": 28,
            "TEXCOORD_0": 30
          },
          "indices": 31,
          "material": 5,
          "mode": 4
        }
      ]
    },
    {
      "name": "Object_8",
      "primitives": [
        {
          "attributes": {
            "NORMAL": 33,
            "POSITION": 32,
            "TEXCOORD_0": 34
          },
          "indices": 35,
          "material": 5,
          "mode": 4
        }
      ]
    },
    {
      "name": "Object_9",
      "primitives": [
        {
          "attributes": {
            "NORMAL": 37,
            "POSITION": 36,
            "TEXCOORD_0": 38
          },
          "indices": 39,
          "material": 5,
          "mode": 4
        }
      ]
    },
    {
      "name": "Object_10",
      "primitives": [
        {
          "attributes": {
            "NORMAL": 41,
            "POSITION": 40,
            "TEXCOORD_0": 42
          },
          "indices": 43,
          "material": 6,
          "mode": 4
        }
      ]
    },
    {
      "name": "Object_11",
      "primitives": [
        {
          "attributes": {
            "NORMAL": 45,
            "POSITION": 44,
            "TEXCOORD_0": 46
          },
          "indices": 47,
          "material": 7,
          "mode": 4
        }
      ]
    }
  ],
  "nodes": [
    {
      "children": [
        1
      ],
      "matrix": [
        1.0,
        0.0,
        0.0,
        0.0,
        0.0,
        2.220446049250313e-16,
        -1.0,
        0.0,
        0.0,
        1.0,
        2.220446049250313e-16,
        0.0,
        0.0,
        0.0,
        0.0,
        1.0
      ],
      "name": "Sketchfab_model"
    },
    {
      "children": [
        2,
        3,
        4,
        5,
        6,
        7,
        8,
        9,
        10,
        11,
        12,
        13
      ],
      "name": "327f0b1b110a41468105eb2efbded486.obj.cleaner"
    },
    {
      "mesh": 0,
      "name": "Object_2"
    },
    {
      "mesh": 1,
      "name": "Object_3"
    },
    {
      "mesh": 2,
      "name": "Object_4"
    },
    {
      "mesh": 3,
      "name": "Object_5"
    },
    {
      "mesh": 4,
      "name": "Object_6"
    },
    {
      "mesh": 5,
      "name": "Object_7"
    },
    {
      "mesh": 6,
      "name": "Object_8"
    },
    {
      "mesh": 7,
      "name": "Object_9"
    },
    {
      "mesh": 8,
      "name": "Object_10"
    },
    {
      "mesh": 9,
      "name": "Object_11"
    },
    {
      "mesh": 10,
      "name": "Object_12"
    },
    {
      "mesh": 11,
      "name": "Object_13"
    }
  ],
  "scene": 0,
  "scenes": [
    {
      "name": "Sketchfab_Scene",
      "nodes": [
        0
      ]
    }
  ]
}
