{
  "accessors": [
    {
      "bufferView": 2,
      "componentType": 5126,
      "count": 2210,
      "max": [
        -65.19149780273438,
        43.19369888305664,
        110.13800048828125
      ],
      "min": [
        -220.76780700683594,
        -51.36330032348633,
        -0.5548999905586243
      ],
      "type": "VEC3"
    },
    {
      "bufferView": 2,
      "byteOffset": 26520,
      "componentType": 5126,
      "count": 2210,
      "max": [
        1.0,
        1.0,
        1.0
      ],
      "min": [
        -1.0,
        -1.0,
        -1.0
      ],
      "type": "VEC3"
    },
    {
      "bufferView": 1,
      "componentType": 5126,
      "count": 2210,
      "max": [
        0.9125000238418579,
        0.4936999976634979
      ],
      "min": [
        0.13750000298023224,
        0.26249998807907104
      ],
      "type": "VEC2"
    },
    {
      "bufferView": 0,
      "componentType": 5125,
      "count": 2718,
      "type": "SCALAR"
    },
    {
      "bufferView": 2,
      "byteOffset": 53040,
      "componentType": 5126,
      "count": 9634,
      "max": [
        44.679500579833984,
        46.79209899902344,
        150.08140563964844
      ],
      "min": [
        -159.6439971923828,
        -45.09170150756836,
        -0.6804999709129333
      ],
      "type": "VEC3"
    },
    {
      "bufferView": 2,
      "byteOffset": 168648,
      "componentType": 5126,
      "count": 9634,
      "max": [
        0.9999911785125732,
        0.9997259974479675,
        0.9993883371353149
      ],
      "min": [
        -0.9999254941940308,
        -0.9998287558555603,
        -0.9999427795410156
      ],
      "type": "VEC3"
    },
    {
      "bufferView": 1,
      "byteOffset": 17680,
      "componentType": 5126,
      "count": 9634,
      "max": [
        0.925000011920929,
        0.8938000202178955
      ],
      "min": [
        0.10939999669790268,
        0.14059999585151672
      ],
      "type": "VEC2"
    },
    {
      "bufferView": 0,
      "byteOffset": 10872,
      "componentType": 5125,
      "count": 14232,
      "type": "SCALAR"
    }
  ],
  "asset": {
    "extras": {
      "author": "Denys Almaral (https://sketchfab.com/denysalmaral)",
      "license": "SKETCHFAB Standard (https://sketchfab.com/licenses)",
      "source": "https://sketchfab.com/3d-models/static-set-low-poly-3d-characters-tell-her-84303c5b957a45ac94233f7958258ba6",
      "title": "Static Set Low-Poly 3D Characters \"Tell Her\""
    },
    "generator": "Sketchfab-15.49.0",
    "version": "2.0"
  },
  "bufferViews": [
    {
      "buffer": 0,
      "byteLength": 67800,
      "name": "floatBufferViews",
      "target": 34963
    },
    {
      "buffer": 0,
      "byteLength": 94752,
      "byteOffset": 67800,
      "byteStride": 8,
      "name": "floatBufferViews",
      "target": 34962
    },
    {
      "buffer": 0,
      "byteLength": 284256,
      "byteOffset": 162552,
      "byteStride": 12,
      "name": "floatBufferViews",
      "target": 34962
    }
  ],
  "buffers": [
    {
      "byteLength": 446808,
      "uri": "scene.bin"
    }
  ],
  "images": [
    {
      "uri": "textures/dummyProps_baseColor.png"
    },
    {
      "uri": "textures/people_pal_baseColor.png"
    }
  ],
  "materials": [
    {
      "doubleSided": true,
      "name": "dummyProps",
      "pbrMetallicRoughness": {
        "baseColorTexture": {
          "index": 0
        },
        "metallicFactor": 0.0,
        "roughnessFactor": 0.6
      }
    },
    {
      "doubleSided": true,
      "name": "people_pal",
      "pbrMetallicRoughness": {
        "baseColorTexture": {
          "index": 1
        },
        "metallicFactor": 0.0,
        "roughnessFactor": 0.6
      }
    }
  ],
  "meshes": [
    {
      "name": "Object_0",
      "primitives": [
        {
          "attributes": {
            "NORMAL": 1,
            "POSITION": 0,
            "TEXCOORD_0": 2
          },
          "indices": 3,
          "material": 0,
          "mode": 4
        }
      ]
    },
    {
      "name": "Object_1",
      "primitives": [
        {
          "attributes": {
            "NORMAL": 5,
            "POSITION": 4,
            "TEXCOORD_0": 6
          },
          "indices": 7,
          "material": 1,
          "mode": 4
        }
      ]
    }
  ],
  "nodes": [
    {
      "children": [
        1
      ],
      "matrix": [
        1.0,
        0.0,
        0.0,
        0.0,
        0.0,
        2.220446049250313e-16,
        -1.0,
        0.0,
        0.0,
        1.0,
        2.220446049250313e-16,
        0.0,
        0.0,
        0.0,
        0.0,
        1.0
      ],
      "name": "Sketchfab_model"
    },
    {
      "children": [
        2,
        3
      ],
      "name": "staticSet_TellHerBoys.obj.cleaner.materialmerger.gles"
    },
    {
      "mesh": 0,
      "name": "Object_2"
    },
    {
      "mesh": 1,
      "name": "Object_3"
    }
  ],
  "samplers": [
    {
      "magFilter": 9729,
      "minFilter": 9987,
      "wrapS": 10497,
      "wrapT": 10497
    }
  ],
  "scene": 0,
  "scenes": [
    {
      "name": "Sketchfab_Scene",
      "nodes": [
        0
      ]
    }
  ],
  "textures": [
    {
      "sampler": 0,
      "source": 0
    },
    {
      "sampler": 0,
      "source": 1
    }
  ]
}
