{
  "accessors": [
    {
      "bufferView": 2,
      "componentType": 5126,
      "count": 1224,
      "max": [
        -1941.727294921875,
        1552.0703125,
        59.42210388183594
      ],
      "min": [
        -3207.88232421875,
        374.09332275390625,
        -1578.8109130859375
      ],
      "type": "VEC3"
    },
    {
      "bufferView": 2,
      "byteOffset": 14688,
      "componentType": 5126,
      "count": 1224,
      "max": [
        1.0,
        1.0,
        1.0
      ],
      "min": [
        -1.0,
        -1.0,
        -1.0
      ],
      "type": "VEC3"
    },
    {
      "bufferView": 3,
      "componentType": 5126,
      "count": 1224,
      "max": [
        1.0,
        0.9984549880027771,
        1.0,
        1.0
      ],
      "min": [
        -0.9997702240943909,
        -0.9844605922698975,
        -1.0,
        1.0
      ],
      "type": "VEC4"
    },
    {
      "bufferView": 1,
      "componentType": 5126,
      "count": 1224,
      "max": [
        0.9882014989852905,
        1.0
      ],
      "min": [
        0.0,
        0.0
      ],
      "type": "VEC2"
    },
    {
      "bufferView": 0,
      "componentType": 5125,
      "count": 1836,
      "type": "SCALAR"
    }
  ],
  "asset": {
    "extras": {
      "author": "Hamode (https://sketchfab.com/mohammadzaid.cy)",
      "license": "CC-BY-4.0 (http://creativecommons.org/licenses/by/4.0/)",
      "source": "https://sketchfab.com/3d-models/seating-bleacher-6e0e88fa79c84ae082ef06908ca77650",
      "title": "Seating | Bleacher"
    },
    "generator": "Sketchfab-15.55.0",
    "version": "2.0"
  },
  "bufferViews": [
    {
      "buffer": 0,
      "byteLength": 7344,
      "name": "floatBufferViews",
      "target": 34963
    },
    {
      "buffer": 0,
      "byteLength": 9792,
      "byteOffset": 7344,
      "byteStride": 8,
      "name": "floatBufferViews",
      "target": 34962
    },
    {
      "buffer": 0,
      "byteLength": 29376,
      "byteOffset": 17136,
      "byteStride": 12,
      "name": "floatBufferViews",
      "target": 34962
    },
    {
      "buffer": 0,
      "byteLength": 19584,
      "byteOffset": 46512,
      "byteStride": 16,
      "name": "floatBufferViews",
      "target": 34962
    }
  ],
  "buffers": [
    {
      "byteLength": 66096,
      "uri": "scene.bin"
    }
  ],
  "images": [
    {
      "uri": "textures/Bleacher_baseColor.png"
    },
    {
      "uri": "textures/Bleacher_metallicRoughness.png"
    },
    {
      "uri": "textures/Bleacher_normal.png"
    }
  ],
  "materials": [
    {
      "doubleSided": true,
      "name": "Bleacher",
      "normalTexture": {
        "index": 2
      },
      "pbrMetallicRoughness": {
        "baseColorTexture": {
          "index": 0
        },
        "metallicRoughnessTexture": {
          "index": 1
        }
      }
    }
  ],
  "meshes": [
    {
      "name": "bleacher20_Bleacher_0",
      "primitives": [
        {
          "attributes": {
            "NORMAL": 1,
            "POSITION": 0,
            "TANGENT": 2,
            "TEXCOORD_0": 3
          },
          "indices": 4,
          "material": 0,
          "mode": 4
        }
      ]
    }
  ],
  "nodes": [
    {
      "children": [
        1
      ],
      "matrix": [
        1.0,
        0.0,
        0.0,
        0.0,
        0.0,
        2.220446049250313e-16,
        -1.0,
        0.0,
        0.0,
        1.0,
        2.220446049250313e-16,
        0.0,
        0.0,
        0.0,
        0.0,
        1.0
      ],
      "name": "Sketchfab_model"
    },
    {
      "children": [
        2
      ],
      "matrix": [
        0.009999999776482582,
        0.0,
        0.0,
        0.0,
        0.0,
        0.0,
        0.009999999776482582,
        0.0,
        0.0,
        -0.009999999776482582,
        0.0,
        0.0,
        0.0,
        0.0,
        0.0,
        1.0
      ],
      "name": "bleacher.fbx"
    },
    {
      "children": [
        3
      ],
      "name": "RootNode"
    },
    {
      "children": [
        4
      ],
      "matrix": [
        0.5297970175743103,
        0.0,
        0.0,
        0.0,
        0.0,
        0.5297970175743103,
        0.0,
        0.0,
        0.0,
        0.0,
        0.5297970175743103,
        0.0,
        -80.66155242919922,
        -173.6104736328125,
        1273.1920166015625,
        1.0
      ],
      "name": "bleacher20"
    },
    {
      "mesh": 0,
      "name": "bleacher20_Bleacher_0"
    }
  ],
  "samplers": [
    {
      "magFilter": 9729,
      "minFilter": 9987,
      "wrapS": 10497,
      "wrapT": 10497
    }
  ],
  "scene": 0,
  "scenes": [
    {
      "name": "Sketchfab_Scene",
      "nodes": [
        0
      ]
    }
  ],
  "textures": [
    {
      "sampler": 0,
      "source": 0
    },
    {
      "sampler": 0,
      "source": 1
    },
    {
      "sampler": 0,
      "source": 2
    }
  ]
}
